<?xml version="1.0" encoding="utf-8"?>
<!-- Generator: Adobe Illustrator 25.3.1, SVG Export Plug-In . SVG Version: 6.00 Build 0)  -->
<svg version="1.1" id="Layer_1" xmlns="http://www.w3.org/2000/svg" xmlns:xlink="http://www.w3.org/1999/xlink" x="0px" y="0px"
	 viewBox="0 0 117.72 112.03" style="enable-background:new 0 0 117.72 112.03;" xml:space="preserve">
<style type="text/css">
	.st0{fill:#D6D8D9;}
	.st1{fill:#363839;}
</style>
<g>
	<g>
		<ellipse class="st0" cx="58.93" cy="55.45" rx="51.56" ry="51.25"/>
	</g>
	<g>
		<path class="st0" d="M58.93,107.59C30,107.59,6.46,84.2,6.46,55.45S30,3.3,58.93,3.3s52.47,23.39,52.47,52.15
			S87.86,107.59,58.93,107.59z M58.93,5.09c-27.94,0-50.66,22.59-50.66,50.36s22.73,50.36,50.66,50.36
			c27.94,0,50.67-22.59,50.67-50.36S86.86,5.09,58.93,5.09z"/>
	</g>
</g>
<g>
	<g>
		<path class="st1" d="M54.29,40.22H32.94v-5.81h51.98v5.81H63.46v47.12h-9.17V40.22z"/>
		<path class="st1" d="M64.46,88.34H53.29V41.22H31.94v-7.81h53.98v7.81H64.46V88.34z M55.29,86.34h7.17V39.22h21.46v-3.81H33.94
			v3.81h21.36V86.34z"/>
	</g>
</g>
</svg>
