<?xml version="1.0" encoding="utf-8"?>
<!-- Generator: Adobe Illustrator 25.3.1, SVG Export Plug-In . SVG Version: 6.00 Build 0)  -->
<svg version="1.1" id="Layer_1" xmlns="http://www.w3.org/2000/svg" xmlns:xlink="http://www.w3.org/1999/xlink" x="0px" y="0px"
	 viewBox="0 0 74.42 74.42" style="enable-background:new 0 0 74.42 74.42;" xml:space="preserve">
<style type="text/css">
	.st0{fill:#B6B8BA;}
	.st1{fill:#FFFFFF;}
</style>
<g>
	<rect x="0.5" y="0.5" class="st0" width="73.42" height="73.42"/>
	<path class="st0" d="M74.42,74.42H0V0h74.42V74.42z M1,73.42h72.42V1H1V73.42z"/>
</g>
<g>
	<g>
		<path class="st1" d="M22.26,26.72c-0.14-0.27-0.22-0.61-0.22-1.01c0-0.61,0.21-1.02,0.64-1.24c0.43-0.22,1.7-0.34,3.83-0.37
			c2.61-0.01,4.96-0.11,7.04-0.29c2.08-0.18,5.29-0.58,9.62-1.19c1.64-0.23,3.2-0.34,4.69-0.34c0.75,0,1.46,0.05,2.14,0.14
			c0.68,0.09,1.16,0.19,1.44,0.27s0.51,0.33,0.68,0.73c0.17,0.4,0.26,0.71,0.26,0.92c0,0.96-0.33,1.44-0.98,1.44
			c-0.43,0-1.02-0.04-1.77-0.12c-0.76-0.07-1.79-0.1-3.09-0.1c-1.34,0-2.96,0.1-4.88,0.29c-1.91,0.2-2.97,0.52-3.18,0.96
			s-0.55,3.08-1.03,7.91c-0.48,4.83-0.72,8.43-0.72,10.79c0,1.1,0.16,2.36,0.49,3.79c0.05,0.27,0.08,0.43,0.08,0.49
			c0,0.6-0.16,1.13-0.47,1.61c-0.32,0.48-0.7,0.72-1.14,0.72c-0.68,0-1.25-0.34-1.7-1.01c-0.45-0.68-0.68-2.57-0.68-5.68
			c0-2.95,0.54-8.7,1.63-17.27c0.05-0.46,0.08-0.7,0.08-0.71c0-0.46-0.24-0.69-0.73-0.69c-0.79,0-2.29,0.1-4.51,0.3
			c-2.22,0.22-3.8,0.32-4.75,0.32C23.6,27.41,22.68,27.18,22.26,26.72z"/>
		<path class="st1" d="M35.67,52.52c-0.81,0-1.49-0.4-2.02-1.18c-0.32-0.48-0.74-1.61-0.74-5.89c0-2.95,0.55-8.78,1.64-17.31
			c0.05-0.42,0.07-0.65,0.08-0.69c0-0.19-0.04-0.29-0.35-0.29c-0.77,0-2.28,0.1-4.48,0.3c-2.21,0.22-3.82,0.33-4.78,0.33
			c-1.54,0-2.54-0.27-3.03-0.81l-0.05-0.08c-0.17-0.32-0.26-0.73-0.26-1.19c0-0.95,0.46-1.38,0.85-1.57c0.31-0.16,1.06-0.37,4-0.41
			c2.59-0.01,4.95-0.11,7.01-0.29c2.06-0.18,5.29-0.58,9.6-1.18c2.5-0.35,4.9-0.49,6.93-0.2c0.7,0.1,1.19,0.19,1.5,0.29
			c0.39,0.12,0.7,0.44,0.91,0.94c0.19,0.45,0.29,0.8,0.29,1.07c0,1.58-0.85,1.82-1.36,1.82c-0.45,0-1.06-0.04-1.81-0.12
			c-1.49-0.13-4.17-0.19-7.89,0.19c-2.58,0.27-2.86,0.7-2.88,0.75c-0.11,0.23-0.38,1.54-1,7.79c-0.48,4.79-0.72,8.41-0.72,10.76
			c0,1.06,0.16,2.31,0.48,3.71c0.06,0.32,0.09,0.51,0.09,0.57c0,0.67-0.18,1.28-0.53,1.82C36.74,52.22,36.25,52.52,35.67,52.52z
			 M34.27,26.4c0.69,0,1.1,0.4,1.1,1.07c0,0.01-0.03,0.27-0.08,0.75c-1.08,8.51-1.63,14.3-1.63,17.22c0,3.76,0.33,5.05,0.62,5.47
			c0.38,0.57,0.84,0.85,1.39,0.85c0.31,0,0.59-0.18,0.83-0.55c0.28-0.42,0.41-0.88,0.41-1.41c0-0.05-0.03-0.19-0.07-0.41
			c-0.33-1.44-0.5-2.75-0.5-3.87c0-2.37,0.24-6.02,0.72-10.83c0.65-6.55,0.92-7.72,1.07-8.04c0.19-0.4,0.75-0.9,3.48-1.18
			c3.76-0.39,6.48-0.33,8.04-0.19c0.73,0.08,1.32,0.12,1.74,0.12c0.2,0,0.61,0,0.61-1.07c0-0.09-0.03-0.32-0.23-0.77
			c-0.12-0.29-0.28-0.47-0.45-0.52c-0.26-0.08-0.73-0.17-1.38-0.26c-1.96-0.27-4.29-0.14-6.72,0.2c-4.32,0.61-7.56,1.01-9.64,1.19
			c-2.09,0.18-4.47,0.28-7.07,0.3c-2.7,0.03-3.46,0.22-3.66,0.32c-0.19,0.09-0.43,0.29-0.43,0.9c0,0.32,0.05,0.59,0.15,0.79
			c0.26,0.25,0.89,0.53,2.45,0.53c0.94,0,2.52-0.11,4.71-0.32C31.95,26.51,33.48,26.4,34.27,26.4z"/>
	</g>
</g>
</svg>
