<?xml version="1.0" encoding="utf-8"?>
<!-- Generator: Adobe Illustrator 25.3.1, SVG Export Plug-In . SVG Version: 6.00 Build 0)  -->
<svg version="1.1" id="Layer_1" xmlns="http://www.w3.org/2000/svg" xmlns:xlink="http://www.w3.org/1999/xlink" x="0px" y="0px"
	 viewBox="0 0 65.19 60.76" style="enable-background:new 0 0 65.19 60.76;" xml:space="preserve">
<style type="text/css">
	.st0{fill:#7CF279;}
	.st1{fill:#FFFFFF;stroke:#FFFFFF;stroke-width:0.75;stroke-miterlimit:10;}
</style>
<g>
	<rect class="st0" width="65.19" height="60.76"/>
</g>
<g>
	<path class="st1" d="M18.44,21.47c-0.14-0.27-0.22-0.61-0.22-1.01c0-0.61,0.21-1.02,0.64-1.24c0.43-0.22,1.7-0.34,3.83-0.37
		c2.61-0.01,4.96-0.11,7.04-0.29c2.08-0.18,5.29-0.58,9.62-1.19c1.64-0.23,3.2-0.34,4.69-0.34c0.75,0,1.46,0.05,2.14,0.14
		c0.68,0.09,1.16,0.19,1.44,0.27s0.51,0.33,0.68,0.73c0.17,0.4,0.26,0.71,0.26,0.92c0,0.96-0.33,1.44-0.98,1.44
		c-0.43,0-1.02-0.04-1.77-0.12c-0.76-0.07-1.79-0.1-3.09-0.1c-1.34,0-2.96,0.1-4.88,0.29c-1.91,0.2-2.97,0.52-3.18,0.96
		s-0.55,3.08-1.03,7.91c-0.48,4.83-0.72,8.43-0.72,10.79c0,1.1,0.16,2.36,0.49,3.79c0.05,0.27,0.08,0.43,0.08,0.49
		c0,0.6-0.16,1.13-0.47,1.61c-0.32,0.48-0.7,0.72-1.14,0.72c-0.68,0-1.25-0.34-1.7-1.01c-0.45-0.68-0.68-2.57-0.68-5.68
		c0-2.95,0.54-8.7,1.63-17.27c0.05-0.46,0.08-0.7,0.08-0.71c0-0.46-0.24-0.69-0.73-0.69c-0.79,0-2.29,0.1-4.51,0.3
		c-2.22,0.22-3.8,0.32-4.75,0.32C19.78,22.16,18.86,21.93,18.44,21.47z"/>
</g>
<g>
</g>
</svg>
