<?xml version="1.0" encoding="utf-8"?>
<!-- Generator: Adobe Illustrator 25.3.1, SVG Export Plug-In . SVG Version: 6.00 Build 0)  -->
<svg version="1.1" id="Layer_1" xmlns="http://www.w3.org/2000/svg" xmlns:xlink="http://www.w3.org/1999/xlink" x="0px" y="0px"
	 viewBox="0 0 86.08 80.38" style="enable-background:new 0 0 86.08 80.38;" xml:space="preserve">
<style type="text/css">
	.st0{fill:#7CF279;}
	.st1{fill:#FFFFFF;stroke:#FFFFFF;stroke-width:0.75;stroke-miterlimit:10;}
</style>
<g>
	<circle class="st0" cx="41.99" cy="39.46" r="36.92"/>
	<path class="st0" d="M41.99,76.88c-20.64,0-37.42-16.79-37.42-37.42S21.35,2.03,41.99,2.03s37.42,16.79,37.42,37.42
		S62.62,76.88,41.99,76.88z M41.99,3.03C21.9,3.03,5.56,19.37,5.56,39.46c0,20.08,16.34,36.42,36.42,36.42
		c20.08,0,36.42-16.34,36.42-36.42C78.41,19.37,62.07,3.03,41.99,3.03z"/>
</g>
<g>
</g>
<g>
	<path class="st1" d="M27.86,33.13c-0.15-0.27-0.22-0.61-0.22-1.01c0-0.61,0.21-1.02,0.64-1.24c0.43-0.22,1.7-0.34,3.83-0.37
		c2.61-0.01,4.96-0.11,7.04-0.29c2.08-0.18,5.29-0.58,9.62-1.19c1.64-0.23,3.2-0.34,4.69-0.34c0.75,0,1.46,0.05,2.14,0.14
		c0.68,0.1,1.16,0.19,1.44,0.27c0.28,0.09,0.51,0.33,0.68,0.73c0.17,0.4,0.26,0.71,0.26,0.92c0,0.96-0.33,1.44-0.98,1.44
		c-0.43,0-1.02-0.04-1.77-0.12c-0.76-0.07-1.79-0.1-3.09-0.1c-1.34,0-2.96,0.1-4.88,0.29c-1.91,0.2-2.97,0.52-3.18,0.96
		c-0.21,0.45-0.55,3.08-1.03,7.91s-0.72,8.43-0.72,10.79c0,1.1,0.16,2.36,0.49,3.79c0.05,0.27,0.08,0.43,0.08,0.49
		c0,0.6-0.16,1.13-0.47,1.61c-0.32,0.48-0.7,0.72-1.14,0.72c-0.68,0-1.25-0.34-1.7-1.01c-0.45-0.68-0.68-2.57-0.68-5.68
		c0-2.95,0.54-8.7,1.63-17.27c0.05-0.46,0.08-0.7,0.08-0.71c0-0.46-0.24-0.69-0.73-0.69c-0.79,0-2.29,0.1-4.51,0.3
		c-2.22,0.22-3.8,0.32-4.75,0.32C29.2,33.81,28.28,33.59,27.86,33.13z"/>
</g>
</svg>
