<?xml version="1.0" encoding="utf-8"?>
<!-- Generator: Adobe Illustrator 25.3.1, SVG Export Plug-In . SVG Version: 6.00 Build 0)  -->
<svg version="1.1" id="Layer_1" xmlns="http://www.w3.org/2000/svg" xmlns:xlink="http://www.w3.org/1999/xlink" x="0px" y="0px"
	 viewBox="0 0 93.04 33.54" style="enable-background:new 0 0 93.04 33.54;" xml:space="preserve">
<style type="text/css">
	.st0{clip-path:url(#SVGID_2_);fill:#231F20;}
	.st1{clip-path:url(#SVGID_4_);fill:#2A2627;}
	.st2{clip-path:url(#SVGID_4_);fill:#292526;}
	.st3{clip-path:url(#SVGID_4_);fill:#282425;}
	.st4{clip-path:url(#SVGID_4_);fill:#272324;}
	.st5{clip-path:url(#SVGID_4_);fill:#262223;}
	.st6{clip-path:url(#SVGID_4_);fill:#252122;}
	.st7{clip-path:url(#SVGID_4_);fill:#242021;}
	.st8{clip-path:url(#SVGID_4_);fill:#231F20;}
	.st9{clip-path:url(#SVGID_6_);fill:#353132;}
	.st10{clip-path:url(#SVGID_6_);fill:#343031;}
	.st11{clip-path:url(#SVGID_6_);fill:#332F30;}
	.st12{clip-path:url(#SVGID_6_);fill:#322E2F;}
	.st13{clip-path:url(#SVGID_6_);fill:#312D2E;}
	.st14{clip-path:url(#SVGID_6_);fill:#302C2D;}
	.st15{clip-path:url(#SVGID_6_);fill:#2F2B2C;}
	.st16{clip-path:url(#SVGID_6_);fill:#2E2A2B;}
	.st17{clip-path:url(#SVGID_6_);fill:#2D292A;}
	.st18{clip-path:url(#SVGID_6_);fill:#2C2829;}
	.st19{clip-path:url(#SVGID_6_);fill:#2B2728;}
	.st20{clip-path:url(#SVGID_6_);fill:#2A2627;}
	.st21{clip-path:url(#SVGID_6_);fill:#292526;}
	.st22{clip-path:url(#SVGID_6_);fill:#282425;}
	.st23{clip-path:url(#SVGID_6_);fill:#272324;}
	.st24{clip-path:url(#SVGID_6_);fill:#262223;}
	.st25{clip-path:url(#SVGID_6_);fill:#3B3738;}
	.st26{clip-path:url(#SVGID_6_);fill:#3A3637;}
	.st27{clip-path:url(#SVGID_6_);fill:#393536;}
	.st28{clip-path:url(#SVGID_6_);fill:#383435;}
	.st29{clip-path:url(#SVGID_6_);fill:#373334;}
	.st30{clip-path:url(#SVGID_6_);fill:#363233;}
	.st31{clip-path:url(#SVGID_6_);fill:#252122;}
	.st32{clip-path:url(#SVGID_6_);fill:#242021;}
	.st33{clip-path:url(#SVGID_6_);fill:#231F20;}
	.st34{clip-path:url(#SVGID_8_);fill:#484445;}
	.st35{clip-path:url(#SVGID_8_);fill:#474344;}
	.st36{clip-path:url(#SVGID_8_);fill:#464243;}
	.st37{clip-path:url(#SVGID_8_);fill:#454142;}
	.st38{clip-path:url(#SVGID_8_);fill:#444041;}
	.st39{clip-path:url(#SVGID_8_);fill:#433F40;}
	.st40{clip-path:url(#SVGID_8_);fill:#423E3F;}
	.st41{clip-path:url(#SVGID_8_);fill:#413D3E;}
	.st42{clip-path:url(#SVGID_8_);fill:#403C3D;}
	.st43{clip-path:url(#SVGID_8_);fill:#3F3B3C;}
	.st44{clip-path:url(#SVGID_8_);fill:#3E3A3B;}
	.st45{clip-path:url(#SVGID_8_);fill:#3D393A;}
	.st46{clip-path:url(#SVGID_8_);fill:#3C3839;}
	.st47{clip-path:url(#SVGID_8_);fill:#3B3738;}
	.st48{clip-path:url(#SVGID_8_);fill:#3A3637;}
	.st49{clip-path:url(#SVGID_8_);fill:#393536;}
	.st50{clip-path:url(#SVGID_8_);fill:#545152;}
	.st51{clip-path:url(#SVGID_8_);fill:#535051;}
	.st52{clip-path:url(#SVGID_8_);fill:#524F50;}
	.st53{clip-path:url(#SVGID_8_);fill:#514E4F;}
	.st54{clip-path:url(#SVGID_8_);fill:#504D4E;}
	.st55{clip-path:url(#SVGID_8_);fill:#4F4C4D;}
	.st56{clip-path:url(#SVGID_8_);fill:#4E4B4C;}
	.st57{clip-path:url(#SVGID_8_);fill:#4D4A4B;}
	.st58{clip-path:url(#SVGID_8_);fill:#4C494A;}
	.st59{clip-path:url(#SVGID_8_);fill:#4B4849;}
	.st60{clip-path:url(#SVGID_8_);fill:#4A4748;}
	.st61{clip-path:url(#SVGID_8_);fill:#494647;}
	.st62{clip-path:url(#SVGID_8_);fill:#484546;}
	.st63{clip-path:url(#SVGID_8_);fill:#383435;}
	.st64{clip-path:url(#SVGID_8_);fill:#373334;}
	.st65{clip-path:url(#SVGID_8_);fill:#363233;}
	.st66{clip-path:url(#SVGID_8_);fill:#353132;}
	.st67{clip-path:url(#SVGID_10_);fill:#5B5859;}
	.st68{clip-path:url(#SVGID_10_);fill:#5A5758;}
	.st69{clip-path:url(#SVGID_10_);fill:#595657;}
	.st70{clip-path:url(#SVGID_10_);fill:#585556;}
	.st71{clip-path:url(#SVGID_10_);fill:#575455;}
	.st72{clip-path:url(#SVGID_10_);fill:#565354;}
	.st73{clip-path:url(#SVGID_10_);fill:#555253;}
	.st74{clip-path:url(#SVGID_10_);fill:#545152;}
	.st75{clip-path:url(#SVGID_10_);fill:#535051;}
	.st76{clip-path:url(#SVGID_10_);fill:#524F50;}
	.st77{clip-path:url(#SVGID_10_);fill:#514E4F;}
	.st78{clip-path:url(#SVGID_10_);fill:#605D5E;}
	.st79{clip-path:url(#SVGID_10_);fill:#5F5C5D;}
	.st80{clip-path:url(#SVGID_10_);fill:#5E5B5C;}
	.st81{clip-path:url(#SVGID_10_);fill:#5D5A5B;}
	.st82{clip-path:url(#SVGID_10_);fill:#5C595A;}
	.st83{clip-path:url(#SVGID_10_);fill:#504D4E;}
	.st84{clip-path:url(#SVGID_10_);fill:#4F4C4D;}
	.st85{clip-path:url(#SVGID_10_);fill:#4E4B4C;}
	.st86{clip-path:url(#SVGID_10_);fill:#4D4A4B;}
	.st87{clip-path:url(#SVGID_10_);fill:#4C494A;}
	.st88{clip-path:url(#SVGID_10_);fill:#4B4849;}
	.st89{clip-path:url(#SVGID_10_);fill:#4A4748;}
	.st90{clip-path:url(#SVGID_12_);fill:#6C696A;}
	.st91{clip-path:url(#SVGID_12_);fill:#6B6869;}
	.st92{clip-path:url(#SVGID_12_);fill:#6A6768;}
	.st93{clip-path:url(#SVGID_12_);fill:#696667;}
	.st94{clip-path:url(#SVGID_12_);fill:#686566;}
	.st95{clip-path:url(#SVGID_12_);fill:#676465;}
	.st96{clip-path:url(#SVGID_12_);fill:#666364;}
	.st97{clip-path:url(#SVGID_12_);fill:#656263;}
	.st98{clip-path:url(#SVGID_12_);fill:#646162;}
	.st99{clip-path:url(#SVGID_12_);fill:#636061;}
	.st100{clip-path:url(#SVGID_12_);fill:#625F60;}
	.st101{clip-path:url(#SVGID_12_);fill:#716E6F;}
	.st102{clip-path:url(#SVGID_12_);fill:#706D6E;}
	.st103{clip-path:url(#SVGID_12_);fill:#6F6C6D;}
	.st104{clip-path:url(#SVGID_12_);fill:#6E6B6C;}
	.st105{clip-path:url(#SVGID_12_);fill:#6D6A6B;}
	.st106{clip-path:url(#SVGID_12_);fill:#615E5F;}
	.st107{clip-path:url(#SVGID_12_);fill:#605D5E;}
	.st108{clip-path:url(#SVGID_12_);fill:#5F5C5D;}
	.st109{clip-path:url(#SVGID_12_);fill:#5E5B5C;}
	.st110{clip-path:url(#SVGID_12_);fill:#5D5A5B;}
	.st111{clip-path:url(#SVGID_12_);fill:#5C595A;}
	.st112{clip-path:url(#SVGID_12_);fill:#5B5859;}
	.st113{fill:#7CF279;stroke:#7CF279;stroke-width:0.75;stroke-miterlimit:10;}
</style>
<g>
	<g>
		<g>
			<g>
				<defs>
					<path id="SVGID_1_" d="M5.85,13.94c-0.09-0.16-0.13-0.35-0.13-0.59c0-0.35,0.13-0.59,0.38-0.71s1.01-0.2,2.28-0.21
						c1.55-0.01,2.95-0.06,4.19-0.17s3.15-0.33,5.72-0.69c0.98-0.13,1.91-0.2,2.79-0.2c0.45,0,0.87,0.03,1.27,0.08
						s0.69,0.11,0.86,0.16s0.3,0.19,0.4,0.42s0.15,0.41,0.15,0.53c0,0.55-0.2,0.83-0.59,0.83c-0.26,0-0.61-0.02-1.05-0.07
						c-0.45-0.04-1.07-0.06-1.84-0.06c-0.8,0-1.76,0.06-2.9,0.17s-1.77,0.3-1.89,0.56s-0.33,1.78-0.62,4.57s-0.43,4.87-0.43,6.23
						c0,0.63,0.1,1.36,0.29,2.19c0.03,0.16,0.05,0.25,0.05,0.28c0,0.34-0.09,0.65-0.28,0.93s-0.41,0.42-0.68,0.42
						c-0.41,0-0.74-0.2-1.01-0.59s-0.4-1.48-0.4-3.28c0-1.7,0.32-5.03,0.97-9.97c0.03-0.27,0.05-0.4,0.05-0.41
						c0-0.27-0.14-0.4-0.43-0.4c-0.47,0-1.36,0.06-2.68,0.18c-1.32,0.12-2.26,0.19-2.82,0.19C6.64,14.34,6.1,14.2,5.85,13.94z"/>
				</defs>
				<clipPath id="SVGID_2_">
					<use xlink:href="#SVGID_1_"  style="overflow:visible;"/>
				</clipPath>
				<polygon class="st0" points="23.76,26.41 18.91,28.62 5.72,28.62 5.72,11.37 23.76,11.37 				"/>
			</g>
		</g>
		<g>
			<g>
				<defs>
					<path id="SVGID_3_" d="M25.19,23.54c0.08-0.14,0.17-0.34,0.28-0.59c0.53-1.22,1.02-2.17,1.46-2.87s0.94-1.35,1.47-1.99
						s1.02-1.11,1.46-1.44s0.84-0.56,1.2-0.69s0.71-0.19,1.04-0.19c0.68,0,1.23,0.21,1.66,0.62s0.64,0.89,0.64,1.44
						c0,0.24-0.08,0.46-0.23,0.66s-0.38,0.29-0.7,0.29c-0.33,0-0.63-0.14-0.9-0.43c-0.28-0.29-0.57-0.43-0.88-0.43
						c-0.81,0-1.94,0.98-3.38,2.95s-2.31,4.14-2.62,6.5c-0.08,0.61-0.23,1.01-0.45,1.21s-0.53,0.29-0.93,0.29
						c-0.38,0-0.66-0.29-0.83-0.86s-0.26-1.53-0.26-2.88c0-0.37,0.02-1.18,0.06-2.43c0.05-1.48,0.14-2.67,0.28-3.57
						c0.02-0.15,0.06-0.5,0.12-1.04c0.05-0.6,0.12-1.02,0.21-1.25s0.25-0.45,0.5-0.66s0.53-0.3,0.83-0.3c0.29,0,0.51,0.09,0.65,0.28
						s0.22,0.38,0.22,0.59c0,0.3-0.08,0.73-0.23,1.29c-0.18,0.62-0.29,1.04-0.32,1.28c-0.02,0.27-0.07,0.54-0.13,0.83
						c-0.08,0.34-0.16,1.22-0.23,2.65l-0.01,0.43V23.54z"/>
				</defs>
				<clipPath id="SVGID_4_">
					<use xlink:href="#SVGID_3_"  style="overflow:visible;"/>
				</clipPath>
				<polygon class="st1" points="34.43,16.69 34.01,15.78 34.43,15.78 				"/>
				<polygon class="st2" points="34.43,18.31 33.27,15.78 34.01,15.78 34.43,16.69 				"/>
				<polygon class="st3" points="34.43,19.94 32.53,15.78 33.27,15.78 34.43,18.31 				"/>
				<polygon class="st4" points="34.43,21.56 31.79,15.78 32.53,15.78 34.43,19.94 				"/>
				<polygon class="st5" points="34.43,23.18 31.05,15.78 31.79,15.78 34.43,21.56 				"/>
				<polygon class="st6" points="34.43,24.81 30.31,15.78 31.05,15.78 34.43,23.18 				"/>
				<polygon class="st7" points="34.43,26.43 29.57,15.78 30.31,15.78 34.43,24.81 				"/>
				<polygon class="st8" points="34.43,26.69 33.91,26.93 28.83,15.78 29.57,15.78 34.43,26.43 				"/>
				<polygon class="st8" points="33.91,26.93 29.66,28.87 23.26,28.87 23.26,15.78 28.83,15.78 				"/>
			</g>
		</g>
		<g>
			<g>
				<defs>
					<path id="SVGID_5_" d="M42.95,23.92c-1.09,1.47-2.18,2.57-3.25,3.3s-2.05,1.1-2.94,1.1c-0.6,0-1.12-0.25-1.56-0.76
						s-0.66-1.16-0.66-1.96c0-2.05,0.92-4.27,2.75-6.64s3.66-3.56,5.47-3.56c0.66,0,1.14,0.38,1.46,1.12
						c0.1,0.25,0.26,0.38,0.48,0.38c0.62,0,0.94,0.24,0.94,0.73c0,0.24-0.04,0.57-0.12,1c-0.42,2.3-0.63,3.93-0.63,4.88
						c0,1.89,0.36,3.02,1.08,3.4c0.34,0.19,0.52,0.42,0.52,0.69c0,0.24-0.17,0.49-0.5,0.73s-0.66,0.37-0.97,0.37
						c-0.6,0-1.1-0.41-1.49-1.24S42.95,25.45,42.95,23.92z M42.23,17.32c-1.03,0-2.23,0.97-3.6,2.9s-2.05,3.54-2.05,4.81
						c0,0.9,0.3,1.35,0.89,1.35c0.86,0,2.05-0.87,3.57-2.6s2.29-3.33,2.29-4.78C43.34,17.88,42.97,17.32,42.23,17.32z"/>
				</defs>
				<clipPath id="SVGID_6_">
					<use xlink:href="#SVGID_5_"  style="overflow:visible;"/>
				</clipPath>
				<polygon class="st9" points="43.34,18.35 42.87,17.32 43.34,17.32 				"/>
				<polygon class="st10" points="43.34,19.97 42.13,17.32 42.87,17.32 43.34,18.35 				"/>
				<polygon class="st11" points="43.34,21.6 41.39,17.32 42.13,17.32 43.34,19.97 				"/>
				<polygon class="st12" points="43.34,23.22 40.64,17.32 41.39,17.32 43.34,21.6 				"/>
				<polygon class="st13" points="43.34,24.84 39.9,17.32 40.64,17.32 43.34,23.22 				"/>
				<polygon class="st14" points="43.34,26.3 43.27,26.33 39.16,17.32 39.9,17.32 43.34,24.84 				"/>
				<polygon class="st15" points="43.27,26.33 43.15,26.38 42.56,26.38 38.42,17.32 39.16,17.32 				"/>
				<polygon class="st16" points="41.81,26.38 37.68,17.32 38.42,17.32 42.56,26.38 				"/>
				<polygon class="st17" points="41.07,26.38 36.94,17.32 37.68,17.32 41.81,26.38 				"/>
				<polygon class="st18" points="40.33,26.38 36.59,18.17 36.59,17.32 36.94,17.32 41.07,26.38 				"/>
				<polygon class="st19" points="39.59,26.38 36.59,19.79 36.59,18.17 40.33,26.38 				"/>
				<polygon class="st20" points="38.85,26.38 36.59,21.42 36.59,19.79 39.59,26.38 				"/>
				<polygon class="st21" points="38.11,26.38 36.59,23.04 36.59,21.42 38.85,26.38 				"/>
				<polygon class="st22" points="37.37,26.38 36.59,24.66 36.59,23.04 38.11,26.38 				"/>
				<polygon class="st23" points="36.63,26.38 36.59,26.29 36.59,24.66 37.37,26.38 				"/>
				<polygon class="st24" points="36.59,26.29 36.63,26.38 36.59,26.38 				"/>
				<polygon class="st25" points="46.5,15.54 46.44,15.41 46.5,15.41 				"/>
				<polygon class="st26" points="46.5,17.17 45.7,15.41 46.44,15.41 46.5,15.54 				"/>
				<polygon class="st27" points="46.5,18.79 44.96,15.41 45.7,15.41 46.5,17.17 				"/>
				<polygon class="st28" points="46.5,20.41 44.22,15.41 44.96,15.41 46.5,18.79 				"/>
				<polygon class="st29" points="46.5,22.04 43.48,15.41 44.22,15.41 46.5,20.41 				"/>
				<polygon class="st30" points="46.5,23.66 42.74,15.41 43.48,15.41 46.5,22.04 				"/>
				<polygon class="st9" points="46.5,25.29 42,15.41 42.74,15.41 46.5,23.66 				"/>
				<polygon class="st10" points="46.5,26.91 41.25,15.41 42,15.41 46.5,25.29 				"/>
				<polygon class="st11" points="46.5,28.53 40.51,15.41 41.25,15.41 46.5,26.91 				"/>
				<polygon class="st12" points="45.84,28.7 39.77,15.41 40.51,15.41 46.5,28.53 46.5,28.7 				"/>
				<polygon class="st13" points="45.1,28.7 39.03,15.41 39.77,15.41 45.84,28.7 				"/>
				<polygon class="st14" points="44.35,28.7 38.29,15.41 39.03,15.41 45.1,28.7 				"/>
				<polygon class="st15" points="43.61,28.7 37.55,15.41 38.29,15.41 44.35,28.7 				"/>
				<polygon class="st16" points="42.87,28.7 36.81,15.41 37.55,15.41 43.61,28.7 				"/>
				<polygon class="st17" points="42.13,28.7 36.08,15.44 36.14,15.41 36.81,15.41 42.87,28.7 				"/>
				<polygon class="st18" points="41.39,28.7 35.47,15.72 36.08,15.44 42.13,28.7 				"/>
				<polygon class="st19" points="40.65,28.7 34.86,16 35.47,15.72 41.39,28.7 				"/>
				<polygon class="st20" points="39.91,28.7 34.55,16.95 34.55,16.14 34.86,16 40.65,28.7 				"/>
				<polygon class="st21" points="39.17,28.7 34.55,18.57 34.55,16.95 39.91,28.7 				"/>
				<polygon class="st22" points="38.43,28.7 34.55,20.19 34.55,18.57 39.17,28.7 				"/>
				<polygon class="st23" points="37.69,28.7 34.55,21.82 34.55,20.19 38.43,28.7 				"/>
				<polygon class="st24" points="36.95,28.7 34.55,23.44 34.55,21.82 37.69,28.7 				"/>
				<polygon class="st31" points="36.21,28.7 34.55,25.06 34.55,23.44 36.95,28.7 				"/>
				<polygon class="st32" points="35.47,28.7 34.55,26.69 34.55,25.06 36.21,28.7 				"/>
				<polygon class="st33" points="34.72,28.7 34.55,28.31 34.55,26.69 35.47,28.7 				"/>
				<polygon class="st33" points="34.55,28.31 34.72,28.7 34.55,28.7 				"/>
			</g>
		</g>
		<g>
			<g>
				<defs>
					<path id="SVGID_7_" d="M57.54,23.34c-1.05,1.68-2.16,2.97-3.33,3.88s-2.25,1.37-3.23,1.37c-0.76,0-1.36-0.29-1.8-0.87
						s-0.66-1.36-0.66-2.33c0-1.98,0.8-4,2.41-6.08s3.34-3.12,5.2-3.12c0.81,0,1.57,0.35,2.26,1.04l1.64-7.66
						c0.12-0.52,0.33-0.88,0.65-1.05s0.56-0.27,0.74-0.27c0.55,0,0.82,0.48,0.82,1.45c0,0.17-0.18,0.81-0.54,1.92
						c-0.57,1.72-1.11,3.83-1.62,6.33s-0.77,4.51-0.77,6.03c0,1.56,0.34,2.34,1.02,2.34c0.44,0,0.89-0.14,1.36-0.43
						c0.2-0.14,0.38-0.21,0.55-0.21c0.25,0,0.38,0.16,0.38,0.49c0,0.4-0.35,0.86-1.05,1.38s-1.42,0.79-2.15,0.79
						c-1.29,0-1.93-1.24-1.93-3.73C57.48,24.19,57.5,23.77,57.54,23.34z M56,17.85c-1.27,0-2.52,0.86-3.76,2.57s-1.86,3.3-1.86,4.75
						c0,0.98,0.32,1.46,0.97,1.46c0.61,0,1.35-0.32,2.22-0.96s1.77-1.66,2.69-3.06s1.38-2.46,1.38-3.16c0-0.34-0.16-0.7-0.47-1.06
						S56.46,17.85,56,17.85z"/>
				</defs>
				<clipPath id="SVGID_8_">
					<use xlink:href="#SVGID_7_"  style="overflow:visible;"/>
				</clipPath>
				<polygon class="st34" points="57.64,18.86 57.18,17.85 57.64,17.85 				"/>
				<polygon class="st35" points="57.64,20.49 56.44,17.85 57.18,17.85 57.64,18.86 				"/>
				<polygon class="st36" points="57.64,22.11 55.7,17.85 56.44,17.85 57.64,20.49 				"/>
				<polygon class="st37" points="57.64,23.73 54.96,17.85 55.7,17.85 57.64,22.11 				"/>
				<polygon class="st38" points="57.64,25.36 54.22,17.85 54.96,17.85 57.64,23.73 				"/>
				<polygon class="st39" points="57.64,26.26 57.37,26.39 53.48,17.85 54.22,17.85 57.64,25.36 				"/>
				<polygon class="st40" points="57.37,26.39 56.82,26.64 56.75,26.64 52.74,17.85 53.48,17.85 				"/>
				<polygon class="st41" points="56.01,26.64 52,17.85 52.74,17.85 56.75,26.64 				"/>
				<polygon class="st42" points="55.27,26.64 51.26,17.85 52,17.85 56.01,26.64 				"/>
				<polygon class="st43" points="54.52,26.64 50.52,17.85 51.26,17.85 55.27,26.64 				"/>
				<polygon class="st44" points="53.78,26.64 50.38,19.17 50.38,17.85 50.52,17.85 54.52,26.64 				"/>
				<polygon class="st45" points="53.04,26.64 50.38,20.8 50.38,19.17 53.78,26.64 				"/>
				<polygon class="st46" points="52.3,26.64 50.38,22.42 50.38,20.8 53.04,26.64 				"/>
				<polygon class="st47" points="51.56,26.64 50.38,24.05 50.38,22.42 52.3,26.64 				"/>
				<polygon class="st48" points="50.82,26.64 50.38,25.67 50.38,24.05 51.56,26.64 				"/>
				<polygon class="st49" points="50.38,25.67 50.82,26.64 50.38,26.64 				"/>
				<polygon class="st50" points="62.61,8.65 62.43,8.24 62.61,8.24 				"/>
				<polygon class="st51" points="62.61,10.27 61.69,8.24 62.43,8.24 62.61,8.65 				"/>
				<polygon class="st52" points="62.61,11.9 60.95,8.24 61.69,8.24 62.61,10.27 				"/>
				<polygon class="st53" points="62.61,13.52 60.21,8.24 60.95,8.24 62.61,11.9 				"/>
				<polygon class="st54" points="62.61,15.14 59.46,8.24 60.21,8.24 62.61,13.52 				"/>
				<polygon class="st55" points="62.61,16.77 58.72,8.24 59.46,8.24 62.61,15.14 				"/>
				<polygon class="st56" points="62.61,18.39 57.98,8.24 58.72,8.24 62.61,16.77 				"/>
				<polygon class="st57" points="62.61,20.01 57.24,8.24 57.98,8.24 62.61,18.39 				"/>
				<polygon class="st58" points="62.61,21.64 56.5,8.24 57.24,8.24 62.61,20.01 				"/>
				<polygon class="st59" points="62.61,23.26 55.87,8.47 56.37,8.24 56.5,8.24 62.61,21.64 				"/>
				<polygon class="st60" points="62.61,24.89 55.25,8.75 55.87,8.47 62.61,23.26 				"/>
				<polygon class="st61" points="62.61,26.51 54.64,9.03 55.25,8.75 62.61,24.89 				"/>
				<polygon class="st62" points="62.61,28.13 54.03,9.31 54.64,9.03 62.61,26.51 				"/>
				<polygon class="st34" points="62.08,28.59 53.41,9.59 54.03,9.31 62.61,28.13 62.61,28.59 				"/>
				<polygon class="st35" points="61.34,28.59 52.8,9.87 53.41,9.59 62.08,28.59 				"/>
				<polygon class="st36" points="60.6,28.59 52.19,10.15 52.8,9.87 61.34,28.59 				"/>
				<polygon class="st37" points="59.86,28.59 51.57,10.43 52.19,10.15 60.6,28.59 				"/>
				<polygon class="st38" points="59.12,28.59 50.96,10.71 51.57,10.43 59.86,28.59 				"/>
				<polygon class="st39" points="58.38,28.59 50.35,10.99 50.96,10.71 59.12,28.59 				"/>
				<polygon class="st40" points="57.63,28.59 49.73,11.27 50.35,10.99 58.38,28.59 				"/>
				<polygon class="st41" points="56.89,28.59 49.12,11.55 49.73,11.27 57.63,28.59 				"/>
				<polygon class="st42" points="56.15,28.59 48.51,11.84 48.51,11.83 49.12,11.55 56.89,28.59 				"/>
				<polygon class="st43" points="55.41,28.59 48.51,13.47 48.51,11.84 56.15,28.59 				"/>
				<polygon class="st44" points="54.67,28.59 48.51,15.09 48.51,13.47 55.41,28.59 				"/>
				<polygon class="st45" points="53.93,28.59 48.51,16.71 48.51,15.09 54.67,28.59 				"/>
				<polygon class="st46" points="53.19,28.59 48.51,18.34 48.51,16.71 53.93,28.59 				"/>
				<polygon class="st47" points="52.45,28.59 48.51,19.96 48.51,18.34 53.19,28.59 				"/>
				<polygon class="st48" points="51.71,28.59 48.51,21.59 48.51,19.96 52.45,28.59 				"/>
				<polygon class="st49" points="50.97,28.59 48.51,23.21 48.51,21.59 51.71,28.59 				"/>
				<polygon class="st63" points="50.23,28.59 48.51,24.83 48.51,23.21 50.97,28.59 				"/>
				<polygon class="st64" points="49.49,28.59 48.51,26.46 48.51,24.83 50.23,28.59 				"/>
				<polygon class="st65" points="48.75,28.59 48.51,28.08 48.51,26.46 49.49,28.59 				"/>
				<polygon class="st66" points="48.51,28.08 48.75,28.59 48.51,28.59 				"/>
			</g>
		</g>
		<g>
			<g>
				<defs>
					<path id="SVGID_9_" d="M75.03,24.21c0,0.8-0.71,1.76-2.12,2.88s-2.87,1.69-4.37,1.69c-1.26,0-2.23-0.37-2.91-1.11
						s-1.03-1.78-1.03-3.11c0-2.23,0.75-4.36,2.26-6.38s3.16-3.02,4.95-3.02c0.59,0,1.06,0.19,1.44,0.57s0.56,0.84,0.56,1.38
						c0,1.2-0.59,2.36-1.77,3.46s-2.76,2.18-4.73,3.25c-0.41,0.21-0.61,0.48-0.61,0.82c0,0.65,0.19,1.17,0.56,1.56
						s0.93,0.59,1.66,0.59c1.68,0,3.39-0.93,5.14-2.79c0.26-0.26,0.45-0.39,0.59-0.39C74.91,23.62,75.03,23.82,75.03,24.21z
						 M66.89,22.39c3.31-1.97,4.97-3.55,4.97-4.75c0-0.47-0.21-0.7-0.63-0.7c-0.72,0-1.53,0.53-2.43,1.58S67.26,20.86,66.89,22.39z"
						/>
				</defs>
				<clipPath id="SVGID_10_">
					<use xlink:href="#SVGID_9_"  style="overflow:visible;"/>
				</clipPath>
				<polygon class="st67" points="71.86,17.55 71.58,16.94 71.86,16.94 				"/>
				<polygon class="st68" points="71.86,19.17 70.84,16.94 71.58,16.94 71.86,17.55 				"/>
				<polygon class="st69" points="71.86,20.8 70.1,16.94 70.84,16.94 71.86,19.17 				"/>
				<polygon class="st70" points="71.86,22.32 71.82,22.34 69.36,16.94 70.1,16.94 71.86,20.8 				"/>
				<polygon class="st71" points="71.82,22.34 71.71,22.39 71.1,22.39 68.62,16.94 69.36,16.94 				"/>
				<polygon class="st72" points="70.36,22.39 67.88,16.94 68.62,16.94 71.1,22.39 				"/>
				<polygon class="st73" points="69.62,22.39 67.14,16.94 67.88,16.94 70.36,22.39 				"/>
				<polygon class="st74" points="68.88,22.39 66.89,18.02 66.89,16.94 67.14,16.94 69.62,22.39 				"/>
				<polygon class="st75" points="68.14,22.39 66.89,19.65 66.89,18.02 68.88,22.39 				"/>
				<polygon class="st76" points="67.4,22.39 66.89,21.27 66.89,19.65 68.14,22.39 				"/>
				<polygon class="st77" points="66.89,21.27 67.4,22.39 66.89,22.39 				"/>
				<polygon class="st78" points="75.03,16.39 74.48,15.17 75.03,15.17 				"/>
				<polygon class="st79" points="75.03,18.02 73.74,15.17 74.48,15.17 75.03,16.39 				"/>
				<polygon class="st80" points="75.03,19.64 72.99,15.17 73.74,15.17 75.03,18.02 				"/>
				<polygon class="st81" points="75.03,21.26 72.25,15.17 72.99,15.17 75.03,19.64 				"/>
				<polygon class="st82" points="75.03,22.89 71.51,15.17 72.25,15.17 75.03,21.26 				"/>
				<polygon class="st67" points="75.03,24.51 70.77,15.17 71.51,15.17 75.03,22.89 				"/>
				<polygon class="st68" points="75.03,26.13 70.03,15.17 70.77,15.17 75.03,24.51 				"/>
				<polygon class="st69" points="75.03,27.76 69.29,15.17 70.03,15.17 75.03,26.13 				"/>
				<polygon class="st70" points="74.76,28.79 68.55,15.17 69.29,15.17 75.03,27.76 75.03,28.79 				"/>
				<polygon class="st71" points="74.02,28.79 67.81,15.17 68.55,15.17 74.76,28.79 				"/>
				<polygon class="st72" points="73.28,28.79 67.07,15.17 67.81,15.17 74.02,28.79 				"/>
				<polygon class="st73" points="72.54,28.79 66.33,15.17 67.07,15.17 73.28,28.79 				"/>
				<polygon class="st74" points="71.8,28.79 65.59,15.17 66.33,15.17 72.54,28.79 				"/>
				<polygon class="st75" points="71.06,28.79 64.91,15.31 65.22,15.17 65.59,15.17 71.8,28.79 				"/>
				<polygon class="st76" points="70.32,28.79 64.62,16.29 64.62,15.44 64.91,15.31 71.06,28.79 				"/>
				<polygon class="st77" points="69.58,28.79 64.62,17.91 64.62,16.29 70.32,28.79 				"/>
				<polygon class="st83" points="68.84,28.79 64.62,19.54 64.62,17.91 69.58,28.79 				"/>
				<polygon class="st84" points="68.1,28.79 64.62,21.16 64.62,19.54 68.84,28.79 				"/>
				<polygon class="st85" points="67.36,28.79 64.62,22.78 64.62,21.16 68.1,28.79 				"/>
				<polygon class="st86" points="66.61,28.79 64.62,24.41 64.62,22.78 67.36,28.79 				"/>
				<polygon class="st87" points="65.87,28.79 64.62,26.03 64.62,24.41 66.61,28.79 				"/>
				<polygon class="st88" points="65.13,28.79 64.62,27.65 64.62,26.03 65.87,28.79 				"/>
				<polygon class="st89" points="64.62,27.65 65.13,28.79 64.62,28.79 				"/>
			</g>
		</g>
		<g>
			<g>
				<defs>
					<path id="SVGID_11_" d="M87.52,24.21c0,0.8-0.71,1.76-2.12,2.88s-2.87,1.69-4.37,1.69c-1.26,0-2.23-0.37-2.91-1.11
						s-1.03-1.78-1.03-3.11c0-2.23,0.75-4.36,2.26-6.38s3.16-3.02,4.95-3.02c0.59,0,1.06,0.19,1.44,0.57s0.56,0.84,0.56,1.38
						c0,1.2-0.59,2.36-1.77,3.46s-2.76,2.18-4.73,3.25c-0.41,0.21-0.61,0.48-0.61,0.82c0,0.65,0.19,1.17,0.56,1.56
						s0.93,0.59,1.66,0.59c1.68,0,3.39-0.93,5.14-2.79c0.26-0.26,0.45-0.39,0.59-0.39C87.39,23.62,87.52,23.82,87.52,24.21z
						 M79.37,22.39c3.31-1.97,4.97-3.55,4.97-4.75c0-0.47-0.21-0.7-0.63-0.7c-0.72,0-1.53,0.53-2.43,1.58S79.74,20.86,79.37,22.39z"
						/>
				</defs>
				<clipPath id="SVGID_12_">
					<use xlink:href="#SVGID_11_"  style="overflow:visible;"/>
				</clipPath>
				<polygon class="st90" points="84.34,17.3 84.17,16.94 84.34,16.94 				"/>
				<polygon class="st91" points="84.34,18.93 83.43,16.94 84.17,16.94 84.34,17.3 				"/>
				<polygon class="st92" points="84.34,20.55 82.69,16.94 83.43,16.94 84.34,18.93 				"/>
				<polygon class="st93" points="84.34,22.17 81.95,16.94 82.69,16.94 84.34,20.55 				"/>
				<polygon class="st94" points="84.34,22.32 84.19,22.39 83.7,22.39 81.21,16.94 81.95,16.94 84.34,22.17 				"/>
				<polygon class="st95" points="82.95,22.39 80.47,16.94 81.21,16.94 83.7,22.39 				"/>
				<polygon class="st96" points="82.21,22.39 79.73,16.94 80.47,16.94 82.95,22.39 				"/>
				<polygon class="st97" points="81.47,22.39 79.37,17.78 79.37,16.94 79.73,16.94 82.21,22.39 				"/>
				<polygon class="st98" points="80.73,22.39 79.37,19.4 79.37,17.78 81.47,22.39 				"/>
				<polygon class="st99" points="79.99,22.39 79.37,21.03 79.37,19.4 80.73,22.39 				"/>
				<polygon class="st100" points="79.37,21.03 79.99,22.39 79.37,22.39 				"/>
				<polygon class="st101" points="87.52,16.15 87.07,15.17 87.52,15.17 				"/>
				<polygon class="st102" points="87.52,17.77 86.33,15.17 87.07,15.17 87.52,16.15 				"/>
				<polygon class="st103" points="87.52,19.39 85.59,15.17 86.33,15.17 87.52,17.77 				"/>
				<polygon class="st104" points="87.52,21.02 84.85,15.17 85.59,15.17 87.52,19.39 				"/>
				<polygon class="st105" points="87.52,22.64 84.11,15.17 84.85,15.17 87.52,21.02 				"/>
				<polygon class="st90" points="87.52,24.26 83.37,15.17 84.11,15.17 87.52,22.64 				"/>
				<polygon class="st91" points="87.52,25.89 82.62,15.17 83.37,15.17 87.52,24.26 				"/>
				<polygon class="st92" points="87.52,27.51 81.88,15.17 82.62,15.17 87.52,25.89 				"/>
				<polygon class="st93" points="87.36,28.79 81.14,15.17 81.88,15.17 87.52,27.51 87.52,28.79 				"/>
				<polygon class="st94" points="86.61,28.79 80.4,15.17 81.14,15.17 87.36,28.79 				"/>
				<polygon class="st95" points="85.87,28.79 79.66,15.17 80.4,15.17 86.61,28.79 				"/>
				<polygon class="st96" points="85.13,28.79 78.92,15.17 79.66,15.17 85.87,28.79 				"/>
				<polygon class="st97" points="84.39,28.79 78.18,15.17 78.92,15.17 85.13,28.79 				"/>
				<polygon class="st98" points="83.65,28.79 77.48,15.27 77.7,15.17 78.18,15.17 84.39,28.79 				"/>
				<polygon class="st99" points="82.91,28.79 77.1,16.04 77.1,15.44 77.48,15.27 83.65,28.79 				"/>
				<polygon class="st100" points="82.17,28.79 77.1,17.67 77.1,16.04 82.91,28.79 				"/>
				<polygon class="st106" points="81.43,28.79 77.1,19.29 77.1,17.67 82.17,28.79 				"/>
				<polygon class="st107" points="80.69,28.79 77.1,20.91 77.1,19.29 81.43,28.79 				"/>
				<polygon class="st108" points="79.95,28.79 77.1,22.54 77.1,20.91 80.69,28.79 				"/>
				<polygon class="st109" points="79.21,28.79 77.1,24.16 77.1,22.54 79.95,28.79 				"/>
				<polygon class="st110" points="78.47,28.79 77.1,25.78 77.1,24.16 79.21,28.79 				"/>
				<polygon class="st111" points="77.73,28.79 77.1,27.41 77.1,25.78 78.47,28.79 				"/>
				<polygon class="st112" points="77.1,27.41 77.73,28.79 77.1,28.79 				"/>
			</g>
		</g>
	</g>
	<g>
		<path class="st113" d="M5.85,13.94c-0.09-0.16-0.13-0.35-0.13-0.59c0-0.35,0.13-0.59,0.38-0.71s1.01-0.2,2.28-0.21
			c1.55-0.01,2.95-0.06,4.19-0.17s3.15-0.33,5.72-0.69c0.98-0.13,1.91-0.2,2.79-0.2c0.45,0,0.87,0.03,1.27,0.08s0.69,0.11,0.86,0.16
			s0.3,0.19,0.4,0.42s0.15,0.41,0.15,0.53c0,0.55-0.2,0.83-0.59,0.83c-0.26,0-0.61-0.02-1.05-0.07c-0.45-0.04-1.07-0.06-1.84-0.06
			c-0.8,0-1.76,0.06-2.9,0.17s-1.77,0.3-1.89,0.56s-0.33,1.78-0.62,4.57s-0.43,4.87-0.43,6.23c0,0.63,0.1,1.36,0.29,2.19
			c0.03,0.16,0.05,0.25,0.05,0.28c0,0.34-0.09,0.65-0.28,0.93s-0.41,0.42-0.68,0.42c-0.41,0-0.74-0.2-1.01-0.59s-0.4-1.48-0.4-3.28
			c0-1.7,0.32-5.03,0.97-9.97c0.03-0.27,0.05-0.4,0.05-0.41c0-0.27-0.14-0.4-0.43-0.4c-0.47,0-1.36,0.06-2.68,0.18
			c-1.32,0.12-2.26,0.19-2.82,0.19C6.64,14.34,6.1,14.2,5.85,13.94z"/>
		<path class="st113" d="M25.19,23.54c0.08-0.14,0.17-0.34,0.28-0.59c0.53-1.22,1.02-2.17,1.46-2.87s0.94-1.35,1.47-1.99
			s1.02-1.11,1.46-1.44s0.84-0.56,1.2-0.69s0.71-0.19,1.04-0.19c0.68,0,1.23,0.21,1.66,0.62s0.64,0.89,0.64,1.44
			c0,0.24-0.08,0.46-0.23,0.66s-0.38,0.29-0.7,0.29c-0.33,0-0.63-0.14-0.9-0.43c-0.28-0.29-0.57-0.43-0.88-0.43
			c-0.81,0-1.94,0.98-3.38,2.95s-2.31,4.14-2.62,6.5c-0.08,0.61-0.23,1.01-0.45,1.21s-0.53,0.29-0.93,0.29
			c-0.38,0-0.66-0.29-0.83-0.86s-0.26-1.53-0.26-2.88c0-0.37,0.02-1.18,0.06-2.43c0.05-1.48,0.14-2.67,0.28-3.57
			c0.02-0.15,0.06-0.5,0.12-1.04c0.05-0.6,0.12-1.02,0.21-1.25s0.25-0.45,0.5-0.66s0.53-0.3,0.83-0.3c0.29,0,0.51,0.09,0.65,0.28
			s0.22,0.38,0.22,0.59c0,0.3-0.08,0.73-0.23,1.29c-0.18,0.62-0.29,1.04-0.32,1.28c-0.02,0.27-0.07,0.54-0.13,0.83
			c-0.08,0.34-0.16,1.22-0.23,2.65l-0.01,0.43V23.54z"/>
		<path class="st113" d="M42.95,23.92c-1.09,1.47-2.18,2.57-3.25,3.3s-2.05,1.1-2.94,1.1c-0.6,0-1.12-0.25-1.56-0.76
			s-0.66-1.16-0.66-1.96c0-2.05,0.92-4.27,2.75-6.64s3.66-3.56,5.47-3.56c0.66,0,1.14,0.38,1.46,1.12c0.1,0.25,0.26,0.38,0.48,0.38
			c0.62,0,0.94,0.24,0.94,0.73c0,0.24-0.04,0.57-0.12,1c-0.42,2.3-0.63,3.93-0.63,4.88c0,1.89,0.36,3.02,1.08,3.4
			c0.34,0.19,0.52,0.42,0.52,0.69c0,0.24-0.17,0.49-0.5,0.73s-0.66,0.37-0.97,0.37c-0.6,0-1.1-0.41-1.49-1.24
			S42.95,25.45,42.95,23.92z M42.23,17.32c-1.03,0-2.23,0.97-3.6,2.9s-2.05,3.54-2.05,4.81c0,0.9,0.3,1.35,0.89,1.35
			c0.86,0,2.05-0.87,3.57-2.6s2.29-3.33,2.29-4.78C43.34,17.88,42.97,17.32,42.23,17.32z"/>
		<path class="st113" d="M57.54,23.34c-1.05,1.68-2.16,2.97-3.33,3.88s-2.25,1.37-3.23,1.37c-0.76,0-1.36-0.29-1.8-0.87
			s-0.66-1.36-0.66-2.33c0-1.98,0.8-4,2.41-6.08s3.34-3.12,5.2-3.12c0.81,0,1.57,0.35,2.26,1.04l1.64-7.66
			c0.12-0.52,0.33-0.88,0.65-1.05s0.56-0.27,0.74-0.27c0.55,0,0.82,0.48,0.82,1.45c0,0.17-0.18,0.81-0.54,1.92
			c-0.57,1.72-1.11,3.83-1.62,6.33s-0.77,4.51-0.77,6.03c0,1.56,0.34,2.34,1.02,2.34c0.44,0,0.89-0.14,1.36-0.43
			c0.2-0.14,0.38-0.21,0.55-0.21c0.25,0,0.38,0.16,0.38,0.49c0,0.4-0.35,0.86-1.05,1.38s-1.42,0.79-2.15,0.79
			c-1.29,0-1.93-1.24-1.93-3.73C57.48,24.19,57.5,23.77,57.54,23.34z M56,17.85c-1.27,0-2.52,0.86-3.76,2.57s-1.86,3.3-1.86,4.75
			c0,0.98,0.32,1.46,0.97,1.46c0.61,0,1.35-0.32,2.22-0.96s1.77-1.66,2.69-3.06s1.38-2.46,1.38-3.16c0-0.34-0.16-0.7-0.47-1.06
			S56.46,17.85,56,17.85z"/>
		<path class="st113" d="M75.03,24.21c0,0.8-0.71,1.76-2.12,2.88s-2.87,1.69-4.37,1.69c-1.26,0-2.23-0.37-2.91-1.11
			s-1.03-1.78-1.03-3.11c0-2.23,0.75-4.36,2.26-6.38s3.16-3.02,4.95-3.02c0.59,0,1.06,0.19,1.44,0.57s0.56,0.84,0.56,1.38
			c0,1.2-0.59,2.36-1.77,3.46s-2.76,2.18-4.73,3.25c-0.41,0.21-0.61,0.48-0.61,0.82c0,0.65,0.19,1.17,0.56,1.56s0.93,0.59,1.66,0.59
			c1.68,0,3.39-0.93,5.14-2.79c0.26-0.26,0.45-0.39,0.59-0.39C74.91,23.62,75.03,23.82,75.03,24.21z M66.89,22.39
			c3.31-1.97,4.97-3.55,4.97-4.75c0-0.47-0.21-0.7-0.63-0.7c-0.72,0-1.53,0.53-2.43,1.58S67.26,20.86,66.89,22.39z"/>
		<path class="st113" d="M87.52,24.21c0,0.8-0.71,1.76-2.12,2.88s-2.87,1.69-4.37,1.69c-1.26,0-2.23-0.37-2.91-1.11
			s-1.03-1.78-1.03-3.11c0-2.23,0.75-4.36,2.26-6.38s3.16-3.02,4.95-3.02c0.59,0,1.06,0.19,1.44,0.57s0.56,0.84,0.56,1.38
			c0,1.2-0.59,2.36-1.77,3.46s-2.76,2.18-4.73,3.25c-0.41,0.21-0.61,0.48-0.61,0.82c0,0.65,0.19,1.17,0.56,1.56s0.93,0.59,1.66,0.59
			c1.68,0,3.39-0.93,5.14-2.79c0.26-0.26,0.45-0.39,0.59-0.39C87.39,23.62,87.52,23.82,87.52,24.21z M79.37,22.39
			c3.31-1.97,4.97-3.55,4.97-4.75c0-0.47-0.21-0.7-0.63-0.7c-0.72,0-1.53,0.53-2.43,1.58S79.74,20.86,79.37,22.39z"/>
	</g>
</g>
</svg>
